<svg width="55" height="55" viewBox="0 0 55 55" fill="none" xmlns="http://www.w3.org/2000/svg">
<path fill-rule="evenodd" clip-rule="evenodd" d="M52.066 12.3913H44.436C45.7268 10.9847 46.4445 9.13155 46.444 7.20672C46.444 7.20672 46.444 6.90131 46.444 6.81478C46.4042 5.60376 46.0549 4.42423 45.4306 3.39257C44.8063 2.36092 43.9286 1.51279 42.884 0.931867C41.8189 0.320992 40.617 0 39.3945 0C38.172 0 36.9701 0.320992 35.905 0.931867L32.436 2.9108C30.3012 4.12794 28.5809 5.97787 27.504 8.21451C26.4271 5.97787 24.7068 4.12794 22.572 2.9108L19.103 0.931867C18.0378 0.321183 16.836 0.000310664 15.6135 0.000310664C14.391 0.000310664 13.1892 0.321183 12.124 0.931867C11.0794 1.51304 10.2017 2.36132 9.57739 3.39313C8.9531 4.42495 8.60382 5.60463 8.564 6.81578C8.564 6.90333 8.564 7.20771 8.564 7.20771C8.56361 9.13253 9.28133 10.9857 10.572 12.3923H2.94199C2.55757 12.3902 2.17652 12.4651 1.82059 12.613C1.46465 12.7608 1.14083 12.9786 0.867615 13.2539C0.594397 13.5292 0.377139 13.8566 0.228271 14.2174C0.0794041 14.5782 0.00183357 14.9653 0 15.3567V22.393C0.00370503 23.182 0.314684 23.9373 0.864716 24.4932C1.41475 25.0491 2.15891 25.3603 2.93399 25.3584H4.27802V52.0346C4.28146 52.8237 4.59234 53.5792 5.14243 54.1352C5.69251 54.6911 6.43684 55.0022 7.21201 55H47.788C48.563 55.0022 49.3072 54.6912 49.8572 54.1355C50.4073 53.5797 50.7183 52.8246 50.722 52.0356V25.3584H52.066C52.8411 25.3603 53.5853 25.0491 54.1353 24.4932C54.6853 23.9373 54.9963 23.182 55 22.393V15.3557C54.9963 14.5668 54.6853 13.8115 54.1352 13.2558C53.5852 12.7 52.841 12.3891 52.066 12.3913ZM33.633 5.06177L37.1 3.08284C37.7989 2.68164 38.5877 2.47083 39.39 2.47083C40.1924 2.47083 40.9811 2.68164 41.68 3.08284C42.3596 3.45807 42.9312 4.00747 43.3381 4.67667C43.745 5.34588 43.9732 6.11167 44 6.89823C44 6.95727 44 7.20361 44 7.20361C43.9936 8.58319 43.4499 9.90386 42.4882 10.8758C41.5264 11.8478 40.2252 12.3917 38.87 12.3882H28.792C28.9776 10.8661 29.5126 9.40988 30.3536 8.13728C31.1946 6.86468 32.318 5.81148 33.633 5.06283V5.06177ZM11.003 6.89419C11.0299 6.10906 11.2574 5.34459 11.663 4.67624C12.0686 4.00788 12.6383 3.45871 13.316 3.08284C14.0151 2.68174 14.804 2.47102 15.6065 2.47102C16.409 2.47102 17.1979 2.68174 17.897 3.08284L21.367 5.06177C22.6825 5.81082 23.8062 6.86474 24.6473 8.13809C25.4883 9.41144 26.023 10.8685 26.208 12.3913H16.13C14.7748 12.3948 13.4736 11.8509 12.5118 10.8789C11.5501 9.90691 11.0064 8.58629 11 7.20672C11 7.20672 11 6.95727 11 6.89823L11.003 6.89419ZM22.003 29.1116H16.971C16.8087 29.1069 16.6471 29.1354 16.4958 29.1953C16.3445 29.2553 16.2066 29.3455 16.0901 29.4607C15.9737 29.5759 15.8811 29.7136 15.8179 29.8659C15.7547 30.0181 15.7222 30.1817 15.7222 30.347C15.7222 30.5122 15.7547 30.6759 15.8179 30.8281C15.8811 30.9803 15.9737 31.1181 16.0901 31.2333C16.2066 31.3485 16.3445 31.4387 16.4958 31.4986C16.6471 31.5586 16.8087 31.587 16.971 31.5823H22V52.5252H7.21201C7.08266 52.5255 6.95847 52.4736 6.86664 52.3809C6.7748 52.2882 6.72278 52.1622 6.72198 52.0305V25.3584H22V29.1157L22.003 29.1116ZM22.003 22.8847H2.93399C2.80447 22.885 2.68015 22.8329 2.58829 22.7399C2.49642 22.647 2.44453 22.5208 2.444 22.3889V15.3526C2.44479 15.2208 2.49675 15.0947 2.58856 15.0018C2.68037 14.9089 2.80455 14.8568 2.93399 14.8568H22V22.8847H22.003ZM30.558 52.5252H24.448V14.8599H30.558V52.5252ZM48.281 52.0305C48.2802 52.1622 48.2282 52.2882 48.1364 52.3809C48.0445 52.4736 47.9203 52.5255 47.791 52.5252H33V31.5864H37.657C37.8193 31.5911 37.9809 31.5627 38.1322 31.5027C38.2835 31.4428 38.4214 31.3526 38.5379 31.2374C38.6543 31.1222 38.7469 30.9844 38.8101 30.8321C38.8733 30.6799 38.9059 30.5163 38.9059 30.3511C38.9059 30.1858 38.8733 30.0222 38.8101 29.87C38.7469 29.7177 38.6543 29.5799 38.5379 29.4647C38.4214 29.3495 38.2835 29.2593 38.1322 29.1994C37.9809 29.1394 37.8193 29.111 37.657 29.1157H33V25.3584H48.278V52.0346L48.281 52.0305ZM52.559 22.3889C52.5585 22.5208 52.5066 22.647 52.4147 22.7399C52.3228 22.8329 52.1985 22.885 52.069 22.8847H33V14.8609H52.066C52.1954 14.8609 52.3196 14.913 52.4114 15.0059C52.5032 15.0988 52.5552 15.2249 52.556 15.3567V22.393L52.559 22.3889ZM43.463 31.5864H43.585C43.7473 31.5911 43.9089 31.5627 44.0602 31.5027C44.2115 31.4428 44.3494 31.3526 44.4659 31.2374C44.5823 31.1222 44.6749 30.9844 44.7381 30.8321C44.8013 30.6799 44.8338 30.5163 44.8338 30.3511C44.8338 30.1858 44.8013 30.0222 44.7381 29.87C44.6749 29.7177 44.5823 29.5799 44.4659 29.4647C44.3494 29.3495 44.2115 29.2593 44.0602 29.1994C43.9089 29.1394 43.7473 29.111 43.585 29.1157H43.463C43.3007 29.111 43.1391 29.1394 42.9878 29.1994C42.8365 29.2593 42.6986 29.3495 42.5822 29.4647C42.4657 29.5799 42.3731 29.7177 42.3099 29.87C42.2467 30.0222 42.2142 30.1858 42.2142 30.3511C42.2142 30.5163 42.2467 30.6799 42.3099 30.8321C42.3731 30.9844 42.4657 31.1222 42.5822 31.2374C42.6986 31.3526 42.8365 31.4428 42.9878 31.5027C43.1391 31.5627 43.3007 31.5911 43.463 31.5864ZM11.041 31.5864H11.163C11.3253 31.5911 11.4869 31.5627 11.6382 31.5027C11.7895 31.4428 11.9274 31.3526 12.0439 31.2374C12.1603 31.1222 12.2529 30.9844 12.3161 30.8321C12.3793 30.6799 12.4118 30.5163 12.4118 30.3511C12.4118 30.1858 12.3793 30.0222 12.3161 29.87C12.2529 29.7177 12.1603 29.5799 12.0439 29.4647C11.9274 29.3495 11.7895 29.2593 11.6382 29.1994C11.4869 29.1394 11.3253 29.111 11.163 29.1157H11.041C10.8787 29.111 10.7171 29.1394 10.5658 29.1994C10.4145 29.2593 10.2766 29.3495 10.1601 29.4647C10.0437 29.5799 9.95115 29.7177 9.88794 29.87C9.82473 30.0222 9.79218 30.1858 9.79218 30.3511C9.79218 30.5163 9.82473 30.6799 9.88794 30.8321C9.95115 30.9844 10.0437 31.1222 10.1601 31.2374C10.2766 31.3526 10.4145 31.4428 10.5658 31.5027C10.7171 31.5627 10.8787 31.5911 11.041 31.5864Z" fill="#F50049"/>
</svg>
