<svg width="28" height="28" viewBox="0 0 28 28" fill="none" xmlns="http://www.w3.org/2000/svg">
<path d="M20.4407 0H7.56476C3.39676 0 0 3.39609 0 7.56328V20.4312C0 24.6039 3.39676 28 7.56476 28H20.4352C24.6087 28 28 24.6039 28 20.4367V7.56328C28.0055 3.39609 24.6087 0 20.4407 0ZM25.741 20.4367C25.741 23.3625 23.3616 25.7414 20.4352 25.7414H7.56476C4.6384 25.7414 2.25903 23.3625 2.25903 20.4367V7.56328C2.25903 4.6375 4.6384 2.25859 7.56476 2.25859H20.4352C23.3616 2.25859 25.741 4.6375 25.741 7.56328V20.4367Z" fill="#F50049"/>
<path d="M20.2711 13.0211C20.0742 11.6813 19.4616 10.4617 18.4989 9.50469C17.5417 8.54766 16.3219 7.93516 14.9818 7.73281C14.3692 7.63984 13.7511 7.63984 13.1385 7.73281C11.4811 7.97891 10.0152 8.85391 9.01426 10.2047C8.01328 11.5555 7.59758 13.207 7.84372 14.8641C8.08986 16.5211 8.96503 17.9867 10.3161 18.9875C11.41 19.7969 12.7064 20.2234 14.0465 20.2234C14.3583 20.2234 14.67 20.2016 14.9818 20.1523C16.6392 19.9062 18.1051 19.0312 19.1061 17.6805C20.1016 16.3352 20.5173 14.6836 20.2711 13.0211ZM14.6482 17.9156C13.587 18.0742 12.5259 17.8062 11.6671 17.1664C10.8084 16.5266 10.245 15.5914 10.0863 14.5305C9.92772 13.4695 10.1957 12.4086 10.8357 11.55C11.4757 10.6859 12.411 10.1281 13.4722 9.96953C13.6691 9.94219 13.866 9.92578 14.0629 9.92578C14.2598 9.92578 14.4567 9.94219 14.6536 9.96953C16.4149 10.232 17.7769 11.5883 18.0395 13.3547C18.3567 15.5477 16.8416 17.593 14.6482 17.9156Z" fill="#F50049"/>
<path d="M21.8793 6.125C21.6659 5.91172 21.376 5.79141 21.0807 5.79141C20.7853 5.79141 20.4899 5.91172 20.2821 6.125C20.0688 6.33828 19.9484 6.62812 19.9484 6.92344C19.9484 7.22422 20.0688 7.51406 20.2821 7.72187C20.4954 7.93516 20.7853 8.05547 21.0807 8.05547C21.376 8.05547 21.6714 7.93516 21.8793 7.72187C22.0926 7.50859 22.2129 7.21875 22.2129 6.92344C22.2129 6.62266 22.0926 6.33281 21.8793 6.125Z" fill="#F50049"/>
</svg>
