<svg width="57" height="57" viewBox="0 0 57 57" fill="none" xmlns="http://www.w3.org/2000/svg">
<path d="M47.9434 9.05664C42.7549 3.85742 35.8477 1 28.5 1C21.1523 1 14.2451 3.85742 9.05664 9.05664C3.85742 14.2451 1 21.1523 1 28.5C1 35.8477 3.85742 42.7549 9.05664 47.9434C14.2559 53.1426 21.1523 56 28.5 56C35.8477 56 42.7549 53.1426 47.9434 47.9434C53.1426 42.7441 56 35.8477 56 28.5C56 21.1523 53.1426 14.2451 47.9434 9.05664ZM46.7939 46.7939C41.9062 51.6816 35.418 54.3672 28.5 54.3672C21.582 54.3672 15.0938 51.6816 10.2061 46.7939C5.3291 41.9062 2.63281 35.4072 2.63281 28.5C2.63281 21.5928 5.31836 15.0938 10.2061 10.2061C15.0938 5.3291 21.5928 2.63281 28.5 2.63281C35.4072 2.63281 41.9062 5.31836 46.7939 10.2061C51.6816 15.0938 54.3672 21.582 54.3672 28.5C54.3672 35.418 51.6709 41.9062 46.7939 46.7939Z" fill="#F50049"/>
<path d="M49.4258 19.584L47.9434 20.2715C49.3398 23.2578 50.0488 26.4805 50.0488 29.8213H51.6816C51.6816 26.2334 50.9297 22.7959 49.4258 19.584Z" fill="#F50049"/>
<path d="M44.8818 12.5049C40.3057 7.92871 34.2148 5.4043 27.748 5.4043V7.03711C33.7852 7.03711 39.457 9.38965 43.7324 13.6543C45.1182 15.04 46.3105 16.5869 47.2881 18.252L48.6953 17.4248C47.6426 15.6416 46.3643 13.9873 44.8818 12.5049Z" fill="#F50049"/>
<path d="M37.4805 34.2148C37.4805 34.2148 37.1152 34.2148 36.5459 34.2148C34.9346 34.2148 31.9268 34.5156 29.9717 36.4707C29.7139 36.7285 29.4883 37.0078 29.2842 37.3086V32.8613H29.3809C30.9922 32.8613 34 32.5713 35.9551 30.6055C38.6406 27.9199 38.1895 23.29 38.1787 23.0967C38.1357 22.7314 37.8457 22.4414 37.4805 22.3984C37.4805 22.3984 37.1152 22.3984 36.5459 22.3984C34.9346 22.3984 31.9268 22.6992 29.9717 24.6543C29.7139 24.9121 29.4883 25.1914 29.2842 25.4922V23.4512C30.165 22.667 32.7324 20.0352 32.7324 16.8232C32.7324 13.0312 29.1445 10.0664 28.9941 9.94824C28.7041 9.71191 28.2959 9.71191 28.0059 9.94824C27.8447 10.0771 24.2676 13.042 24.2676 16.8232C24.2676 20.0352 26.8457 22.6562 27.7158 23.4512V25.4492C27.5117 25.1484 27.2861 24.8691 27.0283 24.6006C25.0625 22.6348 22.0654 22.3447 20.4541 22.3447C19.8848 22.3447 19.5195 22.3447 19.5195 22.3447C19.1543 22.3877 18.8643 22.6777 18.8213 23.043C18.8213 23.2363 18.3594 27.8662 21.0449 30.5518C23.0107 32.5176 26.0078 32.8076 27.6191 32.8076H27.7158V37.2119C27.5117 36.9219 27.2754 36.6641 27.0176 36.417C25.0518 34.4512 22.0547 34.1611 20.4434 34.1611C19.874 34.1611 19.5088 34.1611 19.5088 34.1611C19.1436 34.2041 18.8535 34.4941 18.8105 34.8594C18.8105 35.0527 18.3486 39.6826 21.0342 42.3682C23 44.334 25.9971 44.624 27.6084 44.624H27.7051V51.0264C27.7051 51.4561 28.0596 51.8105 28.4893 51.8105C28.9189 51.8105 29.2734 51.4561 29.2734 51.0264V44.6777H29.3594C30.9707 44.6777 33.9785 44.3877 35.9336 42.4219C38.6191 39.7363 38.168 35.1064 38.1572 34.9131C38.1357 34.5479 37.8457 34.2578 37.4805 34.2148ZM22.1621 29.5098C20.54 27.8877 20.3574 25.1807 20.3574 23.9346H20.4541C21.5605 23.9346 24.2998 24.1064 25.9326 25.7393C27.5654 27.3721 27.7373 30.0684 27.7373 31.3145C26.6738 31.3359 23.8379 31.1855 22.1621 29.5098ZM27.7373 43.1094C26.6738 43.1309 23.8379 42.9805 22.1621 41.3047C20.54 39.6826 20.3574 36.9756 20.3574 35.7295C21.4316 35.7295 24.2676 35.8584 25.9326 37.5342C27.5977 39.21 27.748 41.874 27.7373 43.1094ZM28.5322 22.0547C27.6299 21.1738 25.8574 19.1328 25.8574 16.834C25.8574 14.5352 27.6406 12.5049 28.5215 11.624C29.4131 12.5049 31.1855 14.5459 31.1855 16.834C31.1855 19.1221 29.4238 21.1738 28.5322 22.0547ZM31.1103 25.7285L31.0674 25.7393C32.6895 24.1172 35.4395 23.9346 36.5459 23.9346H36.6426C36.6426 25.1807 36.4814 27.8447 34.8379 29.5098C33.1943 31.1748 30.3369 31.3359 29.2627 31.3145C29.2949 30.0361 29.4775 27.3613 31.1103 25.7285ZM34.8809 41.3154C33.248 42.9805 30.5195 43.1201 29.4023 43.1201H29.3057C29.3057 41.8633 29.4883 39.167 31.1103 37.5449L31.0996 37.5342C32.7217 35.9121 35.4717 35.7295 36.5781 35.7295H36.6748C36.6748 36.9756 36.5137 39.6504 34.8809 41.3154Z" fill="#F50049"/>
<path d="M47.9434 9.05664C42.7549 3.85742 35.8477 1 28.5 1C21.1523 1 14.2451 3.85742 9.05664 9.05664C3.85742 14.2451 1 21.1523 1 28.5C1 35.8477 3.85742 42.7549 9.05664 47.9434C14.2559 53.1426 21.1523 56 28.5 56C35.8477 56 42.7549 53.1426 47.9434 47.9434C53.1426 42.7441 56 35.8477 56 28.5C56 21.1523 53.1426 14.2451 47.9434 9.05664ZM46.7939 46.7939C41.9062 51.6816 35.418 54.3672 28.5 54.3672C21.582 54.3672 15.0938 51.6816 10.2061 46.7939C5.3291 41.9062 2.63281 35.4072 2.63281 28.5C2.63281 21.5928 5.31836 15.0938 10.2061 10.2061C15.0938 5.3291 21.5928 2.63281 28.5 2.63281C35.4072 2.63281 41.9062 5.31836 46.7939 10.2061C51.6816 15.0938 54.3672 21.582 54.3672 28.5C54.3672 35.418 51.6709 41.9062 46.7939 46.7939Z" stroke="#F50049" stroke-miterlimit="10"/>
<path d="M49.4258 19.584L47.9434 20.2715C49.3398 23.2578 50.0488 26.4805 50.0488 29.8213H51.6816C51.6816 26.2334 50.9297 22.7959 49.4258 19.584Z" stroke="#F50049" stroke-miterlimit="10"/>
<path d="M44.8818 12.5049C40.3057 7.92871 34.2148 5.4043 27.748 5.4043V7.03711C33.7852 7.03711 39.457 9.38965 43.7324 13.6543C45.1182 15.04 46.3105 16.5869 47.2881 18.252L48.6953 17.4248C47.6426 15.6416 46.3643 13.9873 44.8818 12.5049Z" stroke="#F50049" stroke-miterlimit="10"/>
<path d="M37.4805 34.2148C37.4805 34.2148 37.1152 34.2148 36.5459 34.2148C34.9346 34.2148 31.9268 34.5156 29.9717 36.4707C29.7139 36.7285 29.4883 37.0078 29.2842 37.3086V32.8613H29.3809C30.9922 32.8613 34 32.5713 35.9551 30.6055C38.6406 27.9199 38.1895 23.29 38.1787 23.0967C38.1357 22.7314 37.8457 22.4414 37.4805 22.3984C37.4805 22.3984 37.1152 22.3984 36.5459 22.3984C34.9346 22.3984 31.9268 22.6992 29.9717 24.6543C29.7139 24.9121 29.4883 25.1914 29.2842 25.4922V23.4512C30.165 22.667 32.7324 20.0352 32.7324 16.8232C32.7324 13.0312 29.1445 10.0664 28.9941 9.94824C28.7041 9.71191 28.2959 9.71191 28.0059 9.94824C27.8447 10.0771 24.2676 13.042 24.2676 16.8232C24.2676 20.0352 26.8457 22.6562 27.7158 23.4512V25.4492C27.5117 25.1484 27.2861 24.8691 27.0283 24.6006C25.0625 22.6348 22.0654 22.3447 20.4541 22.3447C19.8848 22.3447 19.5195 22.3447 19.5195 22.3447C19.1543 22.3877 18.8643 22.6777 18.8213 23.043C18.8213 23.2363 18.3594 27.8662 21.0449 30.5518C23.0107 32.5176 26.0078 32.8076 27.6191 32.8076H27.7158V37.2119C27.5117 36.9219 27.2754 36.6641 27.0176 36.417C25.0518 34.4512 22.0547 34.1611 20.4434 34.1611C19.874 34.1611 19.5088 34.1611 19.5088 34.1611C19.1436 34.2041 18.8535 34.4941 18.8105 34.8594C18.8105 35.0527 18.3486 39.6826 21.0342 42.3682C23 44.334 25.9971 44.624 27.6084 44.624H27.7051V51.0264C27.7051 51.4561 28.0596 51.8105 28.4893 51.8105C28.9189 51.8105 29.2734 51.4561 29.2734 51.0264V44.6777H29.3594C30.9707 44.6777 33.9785 44.3877 35.9336 42.4219C38.6191 39.7363 38.168 35.1064 38.1572 34.9131C38.1357 34.5479 37.8457 34.2578 37.4805 34.2148ZM22.1621 29.5098C20.54 27.8877 20.3574 25.1807 20.3574 23.9346H20.4541C21.5605 23.9346 24.2998 24.1064 25.9326 25.7393C27.5654 27.3721 27.7373 30.0684 27.7373 31.3145C26.6738 31.3359 23.8379 31.1855 22.1621 29.5098ZM27.7373 43.1094C26.6738 43.1309 23.8379 42.9805 22.1621 41.3047C20.54 39.6826 20.3574 36.9756 20.3574 35.7295C21.4316 35.7295 24.2676 35.8584 25.9326 37.5342C27.5977 39.21 27.748 41.874 27.7373 43.1094ZM28.5322 22.0547C27.6299 21.1738 25.8574 19.1328 25.8574 16.834C25.8574 14.5352 27.6406 12.5049 28.5215 11.624C29.4131 12.5049 31.1855 14.5459 31.1855 16.834C31.1855 19.1221 29.4238 21.1738 28.5322 22.0547ZM31.1103 25.7285L31.0674 25.7393C32.6895 24.1172 35.4395 23.9346 36.5459 23.9346H36.6426C36.6426 25.1807 36.4814 27.8447 34.8379 29.5098C33.1943 31.1748 30.3369 31.3359 29.2627 31.3145C29.2949 30.0361 29.4775 27.3613 31.1103 25.7285ZM34.8809 41.3154C33.248 42.9805 30.5195 43.1201 29.4023 43.1201H29.3057C29.3057 41.8633 29.4883 39.167 31.1103 37.5449L31.0996 37.5342C32.7217 35.9121 35.4717 35.7295 36.5781 35.7295H36.6748C36.6748 36.9756 36.5137 39.6504 34.8809 41.3154Z" stroke="#F50049" stroke-miterlimit="10"/>
</svg>
