<svg width="35" height="22" viewBox="0 0 35 22" fill="none" xmlns="http://www.w3.org/2000/svg">
<path d="M32.5319 16.3516C31.8165 15.4608 31.0045 14.6571 30.2182 13.8868C29.9411 13.6122 29.6575 13.3376 29.3804 13.0563C29.013 12.6812 28.8325 12.4133 28.8132 12.219C28.7939 12.0248 28.9228 11.7368 29.2128 11.3148C29.651 10.6785 30.1151 10.0422 30.5662 9.42599C30.9658 8.87676 31.3783 8.31413 31.7779 7.74481L31.8681 7.61755C32.6415 6.50569 33.4406 5.35365 33.866 3.95378C33.9885 3.55191 34.1174 2.95579 33.808 2.43336C33.4986 1.91092 32.9315 1.75687 32.5319 1.68319C32.3386 1.6497 32.1517 1.643 31.9777 1.643L26.9635 1.6363C26.0935 1.62291 25.4941 2.05157 25.1654 2.90891C24.9012 3.5921 24.5918 4.38915 24.2373 5.13932C23.5477 6.59277 22.6777 8.26725 21.4145 9.66042L21.3565 9.7207C21.2727 9.81447 21.1309 9.97522 21.06 10.0087C20.9247 9.92163 20.7635 9.40589 20.77 9.13798C20.77 9.13128 20.77 9.12458 20.77 9.11788L20.7635 3.09645C20.7635 3.06296 20.7635 3.03617 20.7571 3.00268C20.6475 2.14535 20.4284 1.28131 19.1201 1.0134C19.075 1.0067 19.0363 1 18.9912 1H13.7773C12.7976 1 12.2756 1.46885 11.8631 1.9712C11.7407 2.11855 11.4249 2.51373 11.586 2.98928C11.7536 3.47153 12.2434 3.572 12.4045 3.60549C12.9717 3.71936 13.2681 4.05425 13.3583 4.69056C13.5388 5.92967 13.5581 7.25586 13.4292 8.86336C13.3906 9.29203 13.3261 9.62023 13.2101 9.89484C13.1779 9.96852 13.1521 10.0154 13.1328 10.0422C13.1006 10.0288 13.0554 10.0087 12.991 9.96182C12.5914 9.68051 12.2885 9.23845 11.9985 8.80978C10.8384 7.10181 9.85877 5.21969 9.00804 3.04957C8.66002 2.15874 8.00264 1.6631 7.15836 1.6497C5.55358 1.62291 4.06481 1.62291 2.61471 1.6497C1.93155 1.6631 1.45462 1.88413 1.19038 2.31279C0.926143 2.74146 0.939032 3.29069 1.21616 3.94039C3.22697 8.58875 5.05088 11.9645 7.13258 14.8982C8.60201 16.9612 10.0779 18.3945 11.7793 19.4126C13.571 20.4776 15.5883 21 17.9278 21C18.192 21 18.4627 20.9933 18.7398 20.9799C20.1835 20.9129 20.77 20.3168 20.8344 18.85C20.8731 18.0797 20.9504 17.4501 21.2405 16.9076C21.3178 16.7535 21.4145 16.653 21.4854 16.633C21.5627 16.6129 21.698 16.6597 21.8463 16.7602C22.117 16.9478 22.3554 17.1956 22.5488 17.4166C22.7421 17.6376 22.9419 17.8721 23.1353 18.0931C23.5413 18.5687 23.9667 19.0576 24.4113 19.5265C25.4103 20.5847 26.5704 21.0737 27.8465 20.9732H32.4352C32.4481 20.9732 32.4675 20.9732 32.4804 20.9732C33.0088 20.9397 33.4664 20.6316 33.7371 20.136C34.0594 19.5399 34.0529 18.783 33.7242 18.1199C33.3826 17.4434 32.9315 16.8473 32.5319 16.3516ZM32.5964 19.4863C32.5319 19.6001 32.4546 19.6269 32.4159 19.6269H27.8271C27.8078 19.6269 27.7885 19.6269 27.7756 19.6269C26.8733 19.7073 26.1064 19.3724 25.3587 18.5887C24.9398 18.14 24.5274 17.6644 24.1278 17.2023C23.9344 16.9745 23.7346 16.7401 23.5284 16.5124C23.277 16.2311 22.9677 15.9029 22.5681 15.635C21.9752 15.2331 21.4789 15.2465 21.1696 15.3269C20.8667 15.4072 20.4284 15.635 20.0933 16.2646C19.6615 17.0817 19.5648 17.9658 19.5261 18.8031C19.5068 19.3121 19.423 19.4461 19.3843 19.4796C19.3392 19.5265 19.1845 19.6001 18.6818 19.6269C16.2457 19.7475 14.2026 19.292 12.4367 18.2405C10.8964 17.3228 9.54941 16.01 8.19599 14.1011C6.17229 11.2545 4.3935 7.95245 2.42136 3.39786C2.35046 3.23041 2.32469 3.12994 2.32469 3.07636C2.37624 3.05626 2.47292 3.03617 2.64693 3.03617C4.0777 3.00938 5.55358 3.00938 7.14547 3.03617C7.36459 3.04287 7.6095 3.10985 7.7964 3.5854C8.6858 5.856 9.71054 7.82519 10.9286 9.62023C11.2509 10.0958 11.6569 10.6852 12.2498 11.1072C12.7912 11.4956 13.2359 11.4756 13.5066 11.3952C13.7837 11.3148 14.164 11.0804 14.4218 10.4508C14.5893 10.0422 14.686 9.58674 14.7376 9.00402C14.8793 7.28265 14.8536 5.856 14.6602 4.50971C14.5249 3.54521 14.0415 2.84863 13.2875 2.49364C13.4228 2.41996 13.571 2.39317 13.7837 2.39317H18.9332C19.2232 2.46015 19.2812 2.54052 19.3005 2.56731C19.3843 2.68118 19.4294 2.95579 19.4617 3.17013L19.4681 9.13798C19.4552 9.7073 19.7259 10.9799 20.6346 11.3282C20.6411 11.3282 20.6475 11.3349 20.6604 11.3349C21.4918 11.6162 22.0396 11.0067 22.3296 10.6785L22.3812 10.6182C23.7669 9.09109 24.7014 7.30275 25.4296 5.76222C25.8099 4.96517 26.1321 4.14133 26.4028 3.43135C26.5382 3.07636 26.6606 3.01608 26.9571 3.02277C26.9635 3.02277 26.9635 3.02277 26.97 3.02277L31.9905 3.02947C32.1066 3.02947 32.229 3.02947 32.3257 3.04957C32.5641 3.08975 32.6608 3.14334 32.693 3.16343C32.6995 3.20362 32.693 3.31748 32.6221 3.55191C32.2548 4.74414 31.5523 5.75553 30.8111 6.82719L30.7209 6.95445C30.3342 7.51038 29.9217 8.07301 29.5286 8.61554C29.071 9.23845 28.6005 9.88814 28.1558 10.5378C27.202 11.9243 27.2858 12.8419 28.4781 14.0476C28.7617 14.3356 29.0452 14.6169 29.3288 14.8915C30.1215 15.6685 30.8691 16.4052 31.533 17.2358C31.881 17.6711 32.2806 18.2003 32.5641 18.7763C32.7124 19.071 32.6737 19.3456 32.5964 19.4863Z" fill="#F50049" stroke="#F50049" stroke-miterlimit="10"/>
</svg>
